<svg width="30" height="30" viewBox="0 0 30 30" fill="none" xmlns="http://www.w3.org/2000/svg">
<path fill-rule="evenodd" clip-rule="evenodd" d="M15.012 17.8267L22.084 24.8907C22.4593 25.2655 22.9683 25.4761 23.499 25.4761C24.0297 25.4761 24.5386 25.2655 24.9139 24.8907C25.2892 24.5158 25.5 24.0074 25.5 23.4773C25.5 22.9472 25.2892 22.4388 24.9139 22.064L17.8392 15L24.9126 7.936C25.0983 7.7504 25.2456 7.53008 25.3461 7.28761C25.4466 7.04514 25.4983 6.78528 25.4982 6.52286C25.4981 6.26045 25.4463 6.00061 25.3457 5.75819C25.2451 5.51577 25.0977 5.29552 24.9119 5.11C24.7261 4.92449 24.5055 4.77735 24.2628 4.67698C24.02 4.57662 23.7599 4.52499 23.4972 4.52505C23.2344 4.52511 22.9743 4.57686 22.7316 4.67734C22.4889 4.77782 22.2684 4.92507 22.0827 5.11067L15.012 12.1747L7.9399 5.11067C7.75546 4.91974 7.5348 4.76742 7.29079 4.66259C7.04679 4.55776 6.78432 4.50251 6.51871 4.50008C6.2531 4.49765 5.98967 4.54809 5.74378 4.64844C5.4979 4.74879 5.27448 4.89705 5.08657 5.08457C4.89866 5.27209 4.75002 5.49511 4.64932 5.74062C4.54862 5.98613 4.49789 6.24922 4.50007 6.51453C4.50225 6.77984 4.55731 7.04205 4.66203 7.28588C4.76675 7.52971 4.91904 7.75026 5.11001 7.93467L12.1847 15L5.11134 22.0653C4.92037 22.2497 4.76809 22.4703 4.66336 22.7141C4.55864 22.9579 4.50358 23.2202 4.5014 23.4855C4.49922 23.7508 4.54996 24.0139 4.65065 24.2594C4.75135 24.5049 4.89999 24.7279 5.0879 24.9154C5.27581 25.103 5.49923 25.2512 5.74512 25.3516C5.991 25.4519 6.25444 25.5023 6.52005 25.4999C6.78566 25.4975 7.04812 25.4422 7.29213 25.3374C7.53613 25.2326 7.75679 25.0803 7.94123 24.8893L15.012 17.8267Z" fill="#115531"/>
</svg>
