<svg width="91" height="91" viewBox="0 0 91 91" fill="none" xmlns="http://www.w3.org/2000/svg">
<path d="M69.0085 2.18824C67.9716 1.58162 66.4296 1.43039 65.3679 2.94703C64.5189 4.16046 65.722 6.6884 66.2781 7.80055C69.2274 13.6991 75.4944 25.0271 73.7244 43.1384H55.0554C52.375 43.1384 50.2019 45.3115 50.2019 47.992V84.3923C50.2022 87.0725 52.3752 89.2449 55.0554 89.2449H84.4783C87.1585 89.2449 89.3315 87.0725 89.3318 84.3923V47.992C89.3318 47.6829 89.302 47.3807 89.2468 47.0877C89.5954 35.3628 86.0765 12.1736 69.0085 2.18824Z" fill="#AFE67F"/>
<path d="M20.4751 2.18824C19.4382 1.58162 17.8961 1.43039 16.8345 2.94703C15.9856 4.16048 17.1886 6.68841 17.7446 7.80054C20.6939 13.6991 26.9609 25.027 25.1909 43.1384H6.52197C3.84155 43.1384 1.66846 45.3115 1.66846 47.9919V84.3923C1.66871 87.0725 3.84171 89.2449 6.52197 89.2449H35.9448C38.6251 89.2449 40.7981 87.0725 40.7983 84.3923V47.9919C40.7983 47.6829 40.7686 47.3807 40.7134 47.0877C41.062 35.3628 37.5431 12.1736 20.4751 2.18824Z" fill="#AFE67F"/>
</svg>
